<mxfile host="app.diagrams.net" agent="Mozilla/5.0 (Macintosh; Intel Mac OS X 10_15_7) AppleWebKit/537.36 (KHTML, like Gecko) Chrome/129.0.0.0 Safari/537.36" version="24.7.16">
  <diagram name="Page-1" id="tzd_hYQnycI4KfzRAJQq">
    <mxGraphModel dx="968" dy="1783" grid="1" gridSize="10" guides="1" tooltips="1" connect="1" arrows="1" fold="1" page="1" pageScale="1" pageWidth="850" pageHeight="1100" math="0" shadow="0">
      <root>
        <mxCell id="0" />
        <mxCell id="1" parent="0" />
        <mxCell id="dV2eEv0iljEnocn-KY1D-14" style="edgeStyle=orthogonalEdgeStyle;rounded=0;orthogonalLoop=1;jettySize=auto;html=1;exitX=1;exitY=0.5;exitDx=0;exitDy=0;entryX=0;entryY=0.5;entryDx=0;entryDy=0;strokeWidth=2;fillColor=#ffe6cc;strokeColor=#d79b00;" edge="1" parent="1" source="dV2eEv0iljEnocn-KY1D-1" target="dV2eEv0iljEnocn-KY1D-2">
          <mxGeometry relative="1" as="geometry" />
        </mxCell>
        <mxCell id="dV2eEv0iljEnocn-KY1D-1" value="&lt;font style=&quot;font-size: 16px;&quot;&gt;拓跋珪&lt;/font&gt;&lt;div&gt;&lt;font style=&quot;font-size: 16px;&quot;&gt;（道武帝）&lt;/font&gt;&lt;/div&gt;" style="rounded=1;whiteSpace=wrap;html=1;fillColor=#ffe6cc;strokeColor=#d79b00;" vertex="1" parent="1">
          <mxGeometry x="120" y="-260" width="160" height="60" as="geometry" />
        </mxCell>
        <mxCell id="dV2eEv0iljEnocn-KY1D-15" style="edgeStyle=orthogonalEdgeStyle;rounded=0;orthogonalLoop=1;jettySize=auto;html=1;exitX=1;exitY=0.5;exitDx=0;exitDy=0;entryX=0;entryY=0.5;entryDx=0;entryDy=0;strokeWidth=2;fillColor=#ffe6cc;strokeColor=#d79b00;" edge="1" parent="1" source="dV2eEv0iljEnocn-KY1D-2" target="dV2eEv0iljEnocn-KY1D-3">
          <mxGeometry relative="1" as="geometry" />
        </mxCell>
        <mxCell id="dV2eEv0iljEnocn-KY1D-2" value="&lt;font style=&quot;font-size: 16px;&quot;&gt;拓跋嗣&lt;/font&gt;&lt;div&gt;&lt;font style=&quot;font-size: 16px;&quot;&gt;（明元帝）&lt;/font&gt;&lt;/div&gt;" style="rounded=1;whiteSpace=wrap;html=1;fillColor=#ffe6cc;strokeColor=#d79b00;" vertex="1" parent="1">
          <mxGeometry x="360" y="-260" width="160" height="60" as="geometry" />
        </mxCell>
        <mxCell id="dV2eEv0iljEnocn-KY1D-16" style="edgeStyle=orthogonalEdgeStyle;rounded=0;orthogonalLoop=1;jettySize=auto;html=1;exitX=0.5;exitY=1;exitDx=0;exitDy=0;entryX=0.5;entryY=0;entryDx=0;entryDy=0;strokeWidth=2;fillColor=#ffe6cc;strokeColor=#d79b00;" edge="1" parent="1" source="dV2eEv0iljEnocn-KY1D-3" target="dV2eEv0iljEnocn-KY1D-6">
          <mxGeometry relative="1" as="geometry" />
        </mxCell>
        <mxCell id="dV2eEv0iljEnocn-KY1D-3" value="&lt;font style=&quot;font-size: 16px;&quot;&gt;拓跋焘&lt;/font&gt;&lt;div&gt;&lt;font style=&quot;font-size: 16px;&quot;&gt;（太武帝）&lt;/font&gt;&lt;/div&gt;" style="rounded=1;whiteSpace=wrap;html=1;fillColor=#ffe6cc;strokeColor=#d79b00;" vertex="1" parent="1">
          <mxGeometry x="600" y="-260" width="160" height="60" as="geometry" />
        </mxCell>
        <mxCell id="dV2eEv0iljEnocn-KY1D-18" style="edgeStyle=orthogonalEdgeStyle;rounded=0;orthogonalLoop=1;jettySize=auto;html=1;exitX=0.5;exitY=1;exitDx=0;exitDy=0;entryX=0.5;entryY=0;entryDx=0;entryDy=0;strokeWidth=2;fillColor=#ffe6cc;strokeColor=#d79b00;" edge="1" parent="1" source="dV2eEv0iljEnocn-KY1D-4" target="dV2eEv0iljEnocn-KY1D-8">
          <mxGeometry relative="1" as="geometry" />
        </mxCell>
        <mxCell id="dV2eEv0iljEnocn-KY1D-4" value="&lt;font style=&quot;font-size: 16px;&quot;&gt;拓跋弘&lt;/font&gt;&lt;div&gt;&lt;font style=&quot;font-size: 16px;&quot;&gt;（献文帝）&lt;/font&gt;&lt;/div&gt;" style="rounded=1;whiteSpace=wrap;html=1;fillColor=#ffe6cc;strokeColor=#d79b00;" vertex="1" parent="1">
          <mxGeometry x="120" y="-100" width="160" height="60" as="geometry" />
        </mxCell>
        <mxCell id="dV2eEv0iljEnocn-KY1D-17" style="edgeStyle=orthogonalEdgeStyle;rounded=0;orthogonalLoop=1;jettySize=auto;html=1;exitX=0;exitY=0.5;exitDx=0;exitDy=0;entryX=1;entryY=0.5;entryDx=0;entryDy=0;strokeWidth=2;fillColor=#ffe6cc;strokeColor=#d79b00;" edge="1" parent="1" source="dV2eEv0iljEnocn-KY1D-5" target="dV2eEv0iljEnocn-KY1D-4">
          <mxGeometry relative="1" as="geometry" />
        </mxCell>
        <mxCell id="dV2eEv0iljEnocn-KY1D-5" value="&lt;font style=&quot;font-size: 16px;&quot;&gt;拓跋濬&lt;/font&gt;&lt;div&gt;&lt;font style=&quot;font-size: 16px;&quot;&gt;（文成帝）&lt;/font&gt;&lt;/div&gt;" style="rounded=1;whiteSpace=wrap;html=1;fillColor=#ffe6cc;strokeColor=#d79b00;" vertex="1" parent="1">
          <mxGeometry x="360" y="-100" width="160" height="60" as="geometry" />
        </mxCell>
        <mxCell id="dV2eEv0iljEnocn-KY1D-6" value="&lt;span style=&quot;font-size: 16px;&quot;&gt;拓跋余&lt;/span&gt;&lt;div&gt;&lt;span style=&quot;font-size: 16px;&quot;&gt;（南安王）&lt;/span&gt;&lt;/div&gt;" style="rounded=1;whiteSpace=wrap;html=1;fillColor=#fff2cc;strokeColor=#d6b656;" vertex="1" parent="1">
          <mxGeometry x="600" y="-133" width="160" height="60" as="geometry" />
        </mxCell>
        <mxCell id="dV2eEv0iljEnocn-KY1D-7" value="&lt;span style=&quot;font-size: 16px;&quot;&gt;拓跋晃&lt;/span&gt;&lt;div&gt;&lt;span style=&quot;font-size: 16px;&quot;&gt;（景穆帝，追封）&lt;/span&gt;&lt;/div&gt;" style="rounded=1;whiteSpace=wrap;html=1;fillColor=#ffe6cc;strokeColor=#d79b00;" vertex="1" parent="1">
          <mxGeometry x="600" y="-63" width="160" height="60" as="geometry" />
        </mxCell>
        <mxCell id="dV2eEv0iljEnocn-KY1D-19" style="edgeStyle=orthogonalEdgeStyle;rounded=0;orthogonalLoop=1;jettySize=auto;html=1;exitX=1;exitY=0.5;exitDx=0;exitDy=0;entryX=0;entryY=0.5;entryDx=0;entryDy=0;strokeWidth=2;fillColor=#ffe6cc;strokeColor=#d79b00;" edge="1" parent="1" source="dV2eEv0iljEnocn-KY1D-8" target="dV2eEv0iljEnocn-KY1D-9">
          <mxGeometry relative="1" as="geometry" />
        </mxCell>
        <mxCell id="dV2eEv0iljEnocn-KY1D-8" value="&lt;div&gt;&lt;span style=&quot;font-size: 16px; background-color: initial;&quot;&gt;元宏&lt;/span&gt;&lt;/div&gt;&lt;div&gt;&lt;font style=&quot;font-size: 16px;&quot;&gt;（&lt;/font&gt;&lt;span style=&quot;font-size: 16px; background-color: initial;&quot;&gt;孝文帝&lt;/span&gt;&lt;span style=&quot;font-size: 16px; background-color: initial;&quot;&gt;）&lt;/span&gt;&lt;/div&gt;" style="rounded=1;whiteSpace=wrap;html=1;fillColor=#ffe6cc;strokeColor=#d79b00;" vertex="1" parent="1">
          <mxGeometry x="120" y="60" width="160" height="60" as="geometry" />
        </mxCell>
        <mxCell id="dV2eEv0iljEnocn-KY1D-20" style="edgeStyle=orthogonalEdgeStyle;rounded=0;orthogonalLoop=1;jettySize=auto;html=1;exitX=1;exitY=0.5;exitDx=0;exitDy=0;entryX=0;entryY=0.5;entryDx=0;entryDy=0;strokeWidth=2;fillColor=#ffe6cc;strokeColor=#d79b00;" edge="1" parent="1" source="dV2eEv0iljEnocn-KY1D-9" target="dV2eEv0iljEnocn-KY1D-10">
          <mxGeometry relative="1" as="geometry" />
        </mxCell>
        <mxCell id="dV2eEv0iljEnocn-KY1D-9" value="&lt;font style=&quot;font-size: 16px;&quot;&gt;元恪&lt;/font&gt;&lt;div&gt;&lt;font style=&quot;font-size: 16px;&quot;&gt;（宣武帝）&lt;/font&gt;&lt;/div&gt;" style="rounded=1;whiteSpace=wrap;html=1;fillColor=#ffe6cc;strokeColor=#d79b00;" vertex="1" parent="1">
          <mxGeometry x="360" y="60" width="160" height="60" as="geometry" />
        </mxCell>
        <mxCell id="dV2eEv0iljEnocn-KY1D-21" style="edgeStyle=orthogonalEdgeStyle;rounded=0;orthogonalLoop=1;jettySize=auto;html=1;exitX=0.5;exitY=1;exitDx=0;exitDy=0;entryX=0.5;entryY=0;entryDx=0;entryDy=0;strokeWidth=2;fillColor=#ffe6cc;strokeColor=#d79b00;" edge="1" parent="1" source="dV2eEv0iljEnocn-KY1D-10" target="dV2eEv0iljEnocn-KY1D-13">
          <mxGeometry relative="1" as="geometry" />
        </mxCell>
        <mxCell id="dV2eEv0iljEnocn-KY1D-10" value="&lt;font style=&quot;font-size: 16px;&quot;&gt;元诩&lt;/font&gt;&lt;div&gt;&lt;font style=&quot;font-size: 16px;&quot;&gt;（&lt;/font&gt;&lt;span style=&quot;font-size: 16px; background-color: initial;&quot;&gt;孝明帝&lt;/span&gt;&lt;span style=&quot;font-size: 16px; background-color: initial;&quot;&gt;）&lt;/span&gt;&lt;/div&gt;" style="rounded=1;whiteSpace=wrap;html=1;fillColor=#ffe6cc;strokeColor=#d79b00;" vertex="1" parent="1">
          <mxGeometry x="600" y="60" width="160" height="60" as="geometry" />
        </mxCell>
        <mxCell id="dV2eEv0iljEnocn-KY1D-11" value="&lt;span style=&quot;font-size: 16px;&quot;&gt;元修&lt;/span&gt;&lt;div&gt;&lt;span style=&quot;font-size: 16px;&quot;&gt;（&lt;/span&gt;&lt;span style=&quot;font-size: 16px;&quot;&gt;孝武帝&lt;/span&gt;&lt;span style=&quot;font-size: 16px;&quot;&gt;）&lt;/span&gt;&lt;br&gt;&lt;/div&gt;" style="rounded=1;whiteSpace=wrap;html=1;fillColor=#ffe6cc;strokeColor=#d79b00;" vertex="1" parent="1">
          <mxGeometry x="120" y="220" width="160" height="60" as="geometry" />
        </mxCell>
        <mxCell id="dV2eEv0iljEnocn-KY1D-23" style="edgeStyle=orthogonalEdgeStyle;rounded=0;orthogonalLoop=1;jettySize=auto;html=1;exitX=0;exitY=0.5;exitDx=0;exitDy=0;entryX=1;entryY=0.5;entryDx=0;entryDy=0;strokeWidth=2;fillColor=#ffe6cc;strokeColor=#d79b00;" edge="1" parent="1" source="dV2eEv0iljEnocn-KY1D-12" target="dV2eEv0iljEnocn-KY1D-11">
          <mxGeometry relative="1" as="geometry" />
        </mxCell>
        <mxCell id="dV2eEv0iljEnocn-KY1D-12" value="&lt;span style=&quot;font-size: 16px;&quot;&gt;元恭&lt;/span&gt;&lt;div&gt;&lt;span style=&quot;font-size: 16px;&quot;&gt;（&lt;/span&gt;&lt;span style=&quot;font-size: 16px;&quot;&gt;节闵帝）&lt;/span&gt;&lt;br&gt;&lt;/div&gt;" style="rounded=1;whiteSpace=wrap;html=1;fillColor=#ffe6cc;strokeColor=#d79b00;" vertex="1" parent="1">
          <mxGeometry x="360" y="220" width="160" height="60" as="geometry" />
        </mxCell>
        <mxCell id="dV2eEv0iljEnocn-KY1D-22" style="edgeStyle=orthogonalEdgeStyle;rounded=0;orthogonalLoop=1;jettySize=auto;html=1;exitX=0;exitY=0.5;exitDx=0;exitDy=0;entryX=1;entryY=0.5;entryDx=0;entryDy=0;strokeWidth=2;fillColor=#ffe6cc;strokeColor=#d79b00;" edge="1" parent="1" source="dV2eEv0iljEnocn-KY1D-13" target="dV2eEv0iljEnocn-KY1D-12">
          <mxGeometry relative="1" as="geometry" />
        </mxCell>
        <mxCell id="dV2eEv0iljEnocn-KY1D-13" value="&lt;span style=&quot;font-size: 16px;&quot;&gt;元子攸&lt;/span&gt;&lt;div&gt;&lt;span style=&quot;font-size: 16px;&quot;&gt;（&lt;/span&gt;&lt;span style=&quot;font-size: 16px;&quot;&gt;孝庄帝&lt;/span&gt;&lt;span style=&quot;font-size: 16px;&quot;&gt;）&lt;/span&gt;&lt;br&gt;&lt;/div&gt;" style="rounded=1;whiteSpace=wrap;html=1;fillColor=#ffe6cc;strokeColor=#d79b00;" vertex="1" parent="1">
          <mxGeometry x="600" y="220" width="160" height="60" as="geometry" />
        </mxCell>
        <mxCell id="dV2eEv0iljEnocn-KY1D-24" style="edgeStyle=orthogonalEdgeStyle;rounded=0;orthogonalLoop=1;jettySize=auto;html=1;exitX=0;exitY=0.5;exitDx=0;exitDy=0;entryX=1;entryY=0.5;entryDx=0;entryDy=0;strokeWidth=2;fillColor=#ffe6cc;strokeColor=#d79b00;" edge="1" parent="1">
          <mxGeometry relative="1" as="geometry">
            <mxPoint x="599" y="-69" as="sourcePoint" />
            <mxPoint x="519" y="-69" as="targetPoint" />
          </mxGeometry>
        </mxCell>
      </root>
    </mxGraphModel>
  </diagram>
</mxfile>
